<svg xmlns="http://www.w3.org/2000/svg" width="512" height="512" viewBox="0 0 512 512">
  <defs>
    <linearGradient id="bg" x1="256" y1="0" x2="256" y2="512" gradientUnits="userSpaceOnUse">
      <stop offset="0" stop-color="#d595a4" />
      <stop offset="1" stop-color="#bd7382" />
    </linearGradient>
  </defs>
  <rect x="0" y="0" width="512" height="512" rx="112" fill="url(#bg)" />
  <g transform="rotate(-4 246 252)">
    <rect x="140" y="128" width="212" height="248" rx="22" fill="#efe5d4" />
  </g>
  <path
    d="M180 144 H314 L368 198 V368 Q368 392 344 392 H180 Q156 392 156 368 V168 Q156 144 180 144 Z"
    fill="#fffdf8"
  />
  <path d="M314 144 L368 198 H314 Z" fill="#ece0cd" />
  <path
    d="M314 144 V198 H368"
    fill="none"
    stroke="#dcc9b0"
    stroke-width="3"
    stroke-linejoin="round"
    stroke-linecap="round"
  />
  <g stroke-linecap="round">
    <circle cx="184" cy="200" r="8" fill="#b8697b" />
    <line x1="206" y1="200" x2="330" y2="200" stroke="#d99aa6" stroke-width="13" />
    <circle cx="184" cy="248" r="7" fill="#dccab2" />
    <line x1="206" y1="248" x2="348" y2="248" stroke="#e2d4bf" stroke-width="11" />
    <circle cx="184" cy="296" r="7" fill="#dccab2" />
    <line x1="206" y1="296" x2="348" y2="296" stroke="#e2d4bf" stroke-width="11" />
    <circle cx="184" cy="344" r="7" fill="#dccab2" />
    <line x1="206" y1="344" x2="316" y2="344" stroke="#e2d4bf" stroke-width="11" />
  </g>
</svg>
