<svg xmlns="http://www.w3.org/2000/svg" width="1200" height="630" viewBox="0 0 1200 630">
  <defs>
    <linearGradient id="ogbg" x1="0" y1="0" x2="1200" y2="630" gradientUnits="userSpaceOnUse">
      <stop offset="0" stop-color="#fbf8f1" />
      <stop offset="1" stop-color="#f4ecdf" />
    </linearGradient>
    <linearGradient id="mark" x1="256" y1="0" x2="256" y2="512" gradientUnits="userSpaceOnUse">
      <stop offset="0" stop-color="#d595a4" />
      <stop offset="1" stop-color="#bd7382" />
    </linearGradient>
  </defs>
  <rect width="1200" height="630" fill="url(#ogbg)" />
  <g fill="#c47e8a" opacity="0.1">
    <circle cx="1110" cy="92" r="13" />
    <circle cx="1150" cy="150" r="8" />
    <circle cx="92" cy="556" r="10" />
    <circle cx="140" cy="588" r="6" />
  </g>
  <g transform="translate(116 174) scale(0.55)">
    <rect x="0" y="0" width="512" height="512" rx="112" fill="url(#mark)" />
    <g transform="rotate(-4 246 252)">
      <rect x="140" y="128" width="212" height="248" rx="22" fill="#efe5d4" />
    </g>
    <path
      d="M180 144 H314 L368 198 V368 Q368 392 344 392 H180 Q156 392 156 368 V168 Q156 144 180 144 Z"
      fill="#fffdf8"
    />
    <path d="M314 144 L368 198 H314 Z" fill="#ece0cd" />
    <path d="M314 144 V198 H368" fill="none" stroke="#dcc9b0" stroke-width="3" stroke-linejoin="round" />
    <g stroke-linecap="round">
      <circle cx="184" cy="200" r="8" fill="#b8697b" />
      <line x1="206" y1="200" x2="330" y2="200" stroke="#d99aa6" stroke-width="13" />
      <circle cx="184" cy="248" r="7" fill="#dccab2" />
      <line x1="206" y1="248" x2="348" y2="248" stroke="#e2d4bf" stroke-width="11" />
      <circle cx="184" cy="296" r="7" fill="#dccab2" />
      <line x1="206" y1="296" x2="348" y2="296" stroke="#e2d4bf" stroke-width="11" />
      <circle cx="184" cy="344" r="7" fill="#dccab2" />
      <line x1="206" y1="344" x2="316" y2="344" stroke="#e2d4bf" stroke-width="11" />
    </g>
  </g>
  <text x="462" y="292" font-family="'Segoe UI','Helvetica Neue',Arial,sans-serif" font-size="104" font-weight="800" fill="#4a3f35">SnugWeek</text>
  <rect x="466" y="326" width="120" height="10" rx="5" fill="#c47e8a" />
  <text x="466" y="398" font-family="'Segoe UI','Helvetica Neue',Arial,sans-serif" font-size="38" font-weight="600" fill="#7d6e5f">Затишний тижневик-щоденник</text>
  <text x="466" y="454" font-family="'Segoe UI','Helvetica Neue',Arial,sans-serif" font-size="28" font-weight="500" fill="#ab9c8a">Планувальник тижня · трекери · звички</text>
</svg>
